TITLE ""
FILE "1Q_t_1949-1958.mp3" MP3
  TRACK 01 AUDIO
    TITLE "1Q_t_1949-1958_01"
    INDEX 01 00:00:00
  TRACK 02 AUDIO
    TITLE "1Q_t_1949-1958_02"
    INDEX 01 00:00:10
  TRACK 03 AUDIO
    TITLE "1Q_t_1949-1958_03"
    INDEX 01 00:01:33
  TRACK 04 AUDIO
    TITLE "1Q_t_1949-1958_04"
    INDEX 01 00:01:43
  TRACK 05 AUDIO
    TITLE "1Q_t_1949-1958_05"
    INDEX 01 00:03:46
  TRACK 06 AUDIO
    TITLE "1Q_t_1949-1958_06"
    INDEX 01 00:03:54
  TRACK 07 AUDIO
    TITLE "1Q_t_1949-1958_07"
    INDEX 01 00:10:19
  TRACK 08 AUDIO
    TITLE "1Q_t_1949-1958_08"
    INDEX 01 00:10:64
  TRACK 09 AUDIO
    TITLE "1Q_t_1949-1958_09"
    INDEX 01 00:11:65
  TRACK 10 AUDIO
    TITLE "1Q_t_1949-1958_10"
    INDEX 01 00:11:73
  TRACK 11 AUDIO
    TITLE "1Q_t_1949-1958_11"
    INDEX 01 00:13:11
  TRACK 12 AUDIO
    TITLE "1Q_t_1949-1958_12"
    INDEX 01 00:13:21
  TRACK 13 AUDIO
    TITLE "1Q_t_1949-1958_13"
    INDEX 01 00:17:44
  TRACK 14 AUDIO
    TITLE "1Q_t_1949-1958_14"
    INDEX 01 00:18:18
  TRACK 15 AUDIO
    TITLE "1Q_t_1949-1958_15"
    INDEX 01 00:19:25
  TRACK 16 AUDIO
    TITLE "1Q_t_1949-1958_16"
    INDEX 01 00:19:39
  TRACK 17 AUDIO
    TITLE "1Q_t_1949-1958_17"
    INDEX 01 00:22:02
  TRACK 18 AUDIO
    TITLE "1Q_t_1949-1958_18"
    INDEX 01 00:22:12
  TRACK 19 AUDIO
    TITLE "1Q_t_1949-1958_19"
    INDEX 01 00:27:35
  TRACK 20 AUDIO
    TITLE "1Q_t_1949-1958_20"
    INDEX 01 00:28:05
  TRACK 21 AUDIO
    TITLE "1Q_t_1949-1958_21"
    INDEX 01 00:29:16
  TRACK 22 AUDIO
    TITLE "1Q_t_1949-1958_22"
    INDEX 01 00:29:28
  TRACK 23 AUDIO
    TITLE "1Q_t_1949-1958_23"
    INDEX 01 00:31:21
  TRACK 24 AUDIO
    TITLE "1Q_t_1949-1958_24"
    INDEX 01 00:31:28
  TRACK 25 AUDIO
    TITLE "1Q_t_1949-1958_25"
    INDEX 01 00:35:54
  TRACK 26 AUDIO
    TITLE "1Q_t_1949-1958_26"
    INDEX 01 00:36:28
  TRACK 27 AUDIO
    TITLE "1Q_t_1949-1958_27"
    INDEX 01 00:37:21
  TRACK 28 AUDIO
    TITLE "1Q_t_1949-1958_28"
    INDEX 01 00:37:35
  TRACK 29 AUDIO
    TITLE "1Q_t_1949-1958_29"
    INDEX 01 00:40:25
  TRACK 30 AUDIO
    TITLE "1Q_t_1949-1958_30"
    INDEX 01 00:40:33
  TRACK 31 AUDIO
    TITLE "1Q_t_1949-1958_31"
    INDEX 01 00:45:40
  TRACK 32 AUDIO
    TITLE "1Q_t_1949-1958_32"
    INDEX 01 00:46:14
  TRACK 33 AUDIO
    TITLE "1Q_t_1949-1958_33"
    INDEX 01 00:47:51
  TRACK 34 AUDIO
    TITLE "1Q_t_1949-1958_34"
    INDEX 01 00:47:59
  TRACK 35 AUDIO
    TITLE "1Q_t_1949-1958_35"
    INDEX 01 00:48:60
  TRACK 36 AUDIO
    TITLE "1Q_t_1949-1958_36"
    INDEX 01 00:48:68
  TRACK 37 AUDIO
    TITLE "1Q_t_1949-1958_37"
    INDEX 01 00:54:04
  TRACK 38 AUDIO
    TITLE "1Q_t_1949-1958_38"
    INDEX 01 00:54:49
  TRACK 39 AUDIO
    TITLE "1Q_t_1949-1958_39"
    INDEX 01 00:55:68
  TRACK 40 AUDIO
    TITLE "1Q_t_1949-1958_40"
    INDEX 01 00:56:01
  TRACK 41 AUDIO
    TITLE "1Q_t_1949-1958_41"
    INDEX 01 00:57:14
  TRACK 42 AUDIO
    TITLE "1Q_t_1949-1958_42"
    INDEX 01 00:57:24
  TRACK 43 AUDIO
    TITLE "1Q_t_1949-1958_43"
    INDEX 01 01:00:73
  TRACK 44 AUDIO
    TITLE "1Q_t_1949-1958_44"
    INDEX 01 01:01:43
  TRACK 45 AUDIO
    TITLE "1Q_t_1949-1958_45"
    INDEX 01 01:02:68
  TRACK 46 AUDIO
    TITLE "1Q_t_1949-1958_46"
    INDEX 01 01:03:03
  TRACK 47 AUDIO
    TITLE "1Q_t_1949-1958_47"
    INDEX 01 01:04:61
  TRACK 48 AUDIO
    TITLE "1Q_t_1949-1958_48"
    INDEX 01 01:04:69
  TRACK 49 AUDIO
    TITLE "1Q_t_1949-1958_49"
    INDEX 01 01:09:13
  TRACK 50 AUDIO
    TITLE "1Q_t_1949-1958_50"
    INDEX 01 01:09:60
  TRACK 51 AUDIO
    TITLE "1Q_t_1949-1958_51"
    INDEX 01 01:10:66
  TRACK 52 AUDIO
    TITLE "1Q_t_1949-1958_52"
    INDEX 01 01:11:03
  TRACK 53 AUDIO
    TITLE "1Q_t_1949-1958_53"
    INDEX 01 01:13:09
  TRACK 54 AUDIO
    TITLE "1Q_t_1949-1958_54"
    INDEX 01 01:13:17
  TRACK 55 AUDIO
    TITLE "1Q_t_1949-1958_55"
    INDEX 01 01:17:27
  TRACK 56 AUDIO
    TITLE "1Q_t_1949-1958_56"
    INDEX 01 01:17:74
  TRACK 57 AUDIO
    TITLE "1Q_t_1949-1958_57"
    INDEX 01 01:18:71
  TRACK 58 AUDIO
    TITLE "1Q_t_1949-1958_58"
    INDEX 01 01:19:06
  TRACK 59 AUDIO
    TITLE "1Q_t_1949-1958_59"
    INDEX 01 01:20:19
  TRACK 60 AUDIO
    TITLE "1Q_t_1949-1958_60"
    INDEX 01 01:20:29
  TRACK 61 AUDIO
    TITLE "1Q_t_1949-1958_61"
    INDEX 01 01:24:50
